<?xml version="1.0" encoding="iso-8859-1"?>
<!-- Generator: Adobe Illustrator 19.0.0, SVG Export Plug-In . SVG Version: 6.00 Build 0)  -->
<svg version="1.1" id="Layer_1" xmlns="http://www.w3.org/2000/svg" xmlns:xlink="http://www.w3.org/1999/xlink" x="0px" y="0px"
	 viewBox="0 0 503.466 503.466" style="enable-background:new 0 0 503.466 503.466;" xml:space="preserve">
<path style="fill:#AAB1BA;" d="M193.707,300.8l-13.653-23.893H92.16c3.413,18.773,9.387,37.547,19.627,55.467
	c10.24,17.92,23.04,32.427,38.4,44.373L193.707,300.8z M193.707,200.96l-43.52-75.947c-15.36,11.947-28.16,27.307-38.4,44.373
	c-10.24,17.92-16.213,36.693-19.627,55.467h87.893L193.707,200.96z M294.4,251.306c0-23.893-18.773-42.667-42.667-42.667
	c-23.893,0-42.667,18.773-42.667,42.667s18.773,42.667,42.667,42.667C275.627,293.973,294.4,275.2,294.4,251.306L294.4,251.306z
	 M309.76,401.493l-43.52-75.947h-28.16l-43.52,75.947c17.92,6.827,37.547,11.093,58.027,11.093S291.84,409.173,309.76,401.493
	L309.76,401.493z M265.387,175.36l43.52-75.947c-17.92-6.827-37.547-11.093-58.027-11.093s-40.107,4.267-58.027,11.093l43.52,75.947
	H265.387z M412.16,276.053h-87.893l-13.653,23.893l43.52,75.947c15.36-11.947,28.16-27.307,38.4-44.373
	C402.774,314.453,408.747,294.827,412.16,276.053L412.16,276.053z M324.267,224.853h87.893
	c-3.413-18.773-9.387-37.547-19.627-55.467c-10.24-17.92-23.04-32.427-38.4-44.373l-43.52,75.947L324.267,224.853z M499.2,227.413
	v49.493l-36.693,7.68c-2.56,15.36-6.827,30.72-11.947,44.373l28.16,24.747l-24.747,43.52l-34.987-11.947
	c-9.387,11.947-20.48,23.04-33.28,32.427l11.093,35.84l-42.667,24.747l-24.747-28.16c-14.507,5.12-29.013,9.387-45.227,11.947
	l-7.68,36.693h-49.493l-7.68-36.693c-15.36-2.56-30.72-6.827-44.373-11.947l-25.6,27.307l-42.667-24.747l11.947-35.84
	c-11.947-9.387-23.04-20.48-32.427-32.427l-35.84,11.093L25.601,352l28.16-24.747c-5.12-14.507-9.387-29.013-11.947-45.227
	l-36.693-7.68v-48.64l36.693-7.68c2.56-15.36,6.827-30.72,11.947-44.373l-28.16-24.747l24.747-42.667l35.84,11.947
	c9.387-11.947,20.48-23.04,33.28-32.427l-11.093-35.84l42.667-24.747l24.747,28.16c14.507-5.12,29.013-9.387,45.227-11.947
	l7.68-36.693h49.493l7.68,36.693c15.36,2.56,30.72,6.827,44.373,11.947l24.747-28.16l43.52,24.747l-11.947,34.987
	c11.947,9.387,23.04,20.48,32.427,33.28l35.84-11.093l24.747,43.52l-28.16,24.747c5.12,14.507,9.387,29.013,11.947,45.227
	L499.2,227.413z"/>
<path style="fill:#51565F;" d="M275.627,503.04h-49.493c-1.707,0-3.413-1.707-4.267-3.413l-6.827-34.133
	c-13.653-2.56-27.307-5.973-40.107-11.093l-23.04,25.6c-1.707,1.707-3.413,1.707-5.12,0.853l-43.52-24.747
	c-1.707-0.853-2.56-3.413-1.707-5.12l11.093-32.427c-10.24-8.533-20.48-18.773-29.013-29.013l-33.28,10.24
	c-1.707,0.853-4.267,0-5.12-1.707L20.48,354.56c-0.853-1.707-0.853-4.267,0.853-5.12l25.6-23.04
	c-5.12-12.8-8.533-26.453-10.24-40.107l-33.28-7.68c-1.707,0-3.413-2.56-3.413-4.267v-48.64c0-1.707,1.707-3.413,3.413-4.267
	l34.133-6.827c2.56-13.653,5.973-27.307,11.093-40.107l-25.6-23.04c-1.707-1.707-1.707-3.413-0.853-5.12l24.747-42.667
	c0.853-1.707,3.413-2.56,5.12-1.707l32.427,11.093c8.533-10.24,18.773-20.48,29.013-29.013l-10.24-33.28
	c-0.853-1.707,0-4.267,1.707-5.12l43.52-24.747c1.707-0.853,4.267-0.853,5.12,0.853l23.04,25.6c12.8-5.12,26.453-8.533,40.107-10.24
	l7.68-33.28c0-1.707,2.56-3.413,4.267-3.413h49.493c1.707,0,3.413,1.707,4.267,3.413l6.827,34.133
	c13.653,2.56,27.307,5.973,40.107,11.093l23.04-25.6c1.707-1.707,3.413-1.707,5.12-0.853l42.667,24.747
	c1.707,0.853,2.56,3.413,1.707,5.12l-11.093,32.427c10.24,8.533,20.48,18.773,29.013,29.013l33.28-10.24
	c1.707-0.853,4.267,0,5.12,1.707l24.747,43.52c0.853,1.707,0.853,4.267-0.853,5.12l-25.6,23.04c5.12,12.8,8.533,26.453,10.24,40.107
	l33.28,7.68c1.707,0,3.413,2.56,3.413,4.267v49.493c0,1.707-1.707,3.413-3.413,4.267l-34.133,6.827
	c-2.56,13.653-5.973,27.307-11.093,40.107l25.6,23.04c1.707,1.707,1.707,3.413,0.853,5.12l-24.747,43.52
	c-0.853,1.707-3.413,2.56-5.12,1.707l-32.427-11.093c-8.533,10.24-18.773,20.48-29.013,29.013l10.24,33.28
	c0.853,1.707,0,4.267-1.707,5.12l-43.52,24.747c-1.707,0.853-4.267,0.853-5.12-0.853l-23.04-25.6
	c-12.8,5.12-26.453,8.533-40.107,10.24l-7.68,33.28C279.894,501.333,278.187,503.04,275.627,503.04z M229.547,494.506h42.667
	l6.827-33.28c0-1.707,1.707-3.413,3.413-3.413c14.507-2.56,29.867-5.973,43.52-11.947c1.707-0.853,3.413,0,5.12,0.853l22.187,25.6
	l36.693-21.333l-10.24-32.427c-0.853-1.707,0-3.413,1.707-4.267c11.947-9.387,23.04-20.48,32.427-32.427
	c0.853-1.707,2.56-1.707,4.267-1.707l32.427,11.093l21.333-36.693l-24.747-23.04c-1.707-0.853-1.707-3.413-0.853-5.12
	c5.973-14.507,9.387-29.013,11.947-43.52c0-1.707,1.707-3.413,3.413-3.413l33.28-6.827v-42.667l-33.28-6.827
	c-1.707,0-3.413-1.707-3.413-3.413c-2.56-14.507-5.973-29.867-11.947-43.52c-0.853-1.707,0-3.413,0.853-5.12l25.6-22.187
	l-21.333-36.693l-32.427,10.24c-1.707,0.853-3.413,0-4.267-1.707c-9.387-11.947-20.48-23.04-32.427-32.427
	c-1.707-0.853-1.707-3.413-1.707-4.267l11.093-32.427l-36.693-21.333l-23.04,24.747c-0.853,1.707-3.413,1.707-5.12,0.853
	c-14.507-5.973-29.013-9.387-43.52-11.947c-1.707,0-3.413-1.707-3.413-3.413l-6.827-33.28H230.4l-6.827,33.28
	c0,1.707-1.707,3.413-3.413,3.413c-14.507,2.56-29.867,5.973-43.52,11.947c-1.707,0.853-3.413,0-5.12-0.853l-22.187-25.6
	L112.64,50.774L122.88,83.2c0.853,1.707,0,3.413-1.707,4.267c-11.947,9.387-23.04,20.48-32.427,32.427
	c-0.853,1.707-3.413,1.707-4.267,1.707l-32.427-11.093L30.721,147.2l24.747,23.04c1.707,0.853,1.707,3.413,0.853,5.12
	c-5.973,14.507-9.387,29.013-11.947,43.52c0,1.707-1.707,3.413-3.413,3.413l-33.28,6.827v42.667l33.28,6.827
	c1.707,0,3.413,1.707,3.413,3.413c2.56,14.507,5.973,29.867,11.947,43.52c0.853,1.707,0,3.413-0.853,5.12l-25.6,22.187
	l21.333,36.693l32.427-10.24c1.707-0.853,3.413,0,4.267,1.707c9.387,11.947,20.48,23.04,32.427,32.427
	c1.707,0.853,1.707,3.413,1.707,4.267l-11.093,32.427l36.693,21.333l23.04-24.747c0.853-1.707,3.413-1.707,5.12-0.853
	c14.507,5.973,29.013,9.387,43.52,11.947c1.707,0,3.413,1.707,3.413,3.413L229.547,494.506z M251.734,416.853
	c-20.48,0-40.107-3.413-59.733-11.093c-0.853-0.853-1.707-1.707-2.56-2.56c0-0.853,0-2.56,0-3.413l43.52-75.947
	c0.853-1.707,3.413-2.56,5.973-1.707c1.707,0.853,2.56,3.413,1.707,5.973l-40.96,71.68c33.28,11.947,69.973,11.947,103.253,0
	l-40.96-71.68c-0.853-1.707-0.853-4.267,1.707-5.973c1.707-0.853,4.267-0.853,5.973,1.707l43.52,75.947
	c0.853,0.853,0.853,2.56,0,3.413c0,0.853-1.707,1.707-2.56,2.56C291.84,413.44,272.214,416.853,251.734,416.853z M149.334,381.013
	c-0.853,0-1.707,0-2.56-0.853c-16.213-12.8-29.013-28.16-39.253-46.08c-10.24-17.067-17.067-36.693-20.48-57.173
	c0-0.853,0-2.56,0.853-3.413c0.853-0.853,1.707-1.707,3.413-1.707l0,0H179.2c2.56,0,4.267,1.707,4.267,4.267
	s-1.707,4.267-4.267,4.267l0,0H96.427c3.413,17.067,9.387,34.133,17.92,49.493c8.533,15.36,19.627,29.013,33.28,40.107l40.96-71.68
	c0.853-1.707,3.413-2.56,5.973-1.707c1.707,0.853,2.56,3.413,1.707,5.973l-43.52,75.947
	C152.747,379.306,151.893,380.16,149.334,381.013C150.187,380.16,150.187,381.013,149.334,381.013z M354.134,381.013
	C353.28,381.013,353.28,380.16,354.134,381.013c-1.707,0-3.413-0.853-3.413-2.56l-43.52-75.947
	c-0.853-1.707-0.853-4.267,1.707-5.973c1.707-0.853,4.267-0.853,5.973,1.707l40.96,71.68c13.653-11.947,24.747-24.747,33.28-40.107
	c8.533-15.36,14.507-31.573,17.92-49.493h-82.773c-2.56,0-4.267-1.707-4.267-4.267c0-2.56,1.707-4.267,4.267-4.267h87.893
	c0.853,0,2.56,0.853,3.413,1.707c0.853,0.853,0.853,2.56,0.853,3.413c-3.413,20.48-10.24,39.253-20.48,57.173
	c-10.24,17.067-23.04,33.28-39.253,46.08C355.84,380.16,354.987,381.013,354.134,381.013z M251.734,298.24
	c-25.6,0-46.933-21.333-46.933-46.933s21.333-46.933,46.933-46.933s46.933,21.333,46.933,46.933S277.334,298.24,251.734,298.24z
	 M251.734,212.906c-21.333,0-38.4,17.067-38.4,38.4s17.067,38.4,38.4,38.4s38.4-17.067,38.4-38.4S273.067,212.906,251.734,212.906z
	 M411.307,229.12h-87.893c-2.56,0-4.267-1.707-4.267-4.267s1.707-4.267,4.267-4.267h82.773c-3.413-17.067-9.387-34.133-17.92-49.493
	s-19.627-29.013-33.28-40.107l-40.96,71.68c-0.853,1.707-3.413,2.56-5.973,1.707c-1.707-0.853-2.56-3.413-1.707-5.973l43.52-75.947
	c0.853-0.853,1.707-1.707,2.56-1.707s2.56,0,3.413,0.853c16.213,12.8,29.013,28.16,39.253,46.08
	c10.24,17.067,17.067,36.693,20.48,57.173c0,0.853,0,2.56-0.853,3.413C413.867,229.12,413.014,229.12,411.307,229.12z M179.2,229.12
	H91.307c-0.853,0-2.56-0.853-3.413-1.707c-0.853-0.853-0.853-2.56-0.853-3.413c3.413-20.48,10.24-39.253,20.48-57.173
	c10.24-17.067,23.04-33.28,39.253-46.08c0.853-0.853,2.56-0.853,3.413-0.853c0.853,0,2.56,0.853,2.56,1.707l43.52,75.947
	c0.853,1.707,0.853,4.267-1.707,5.973c-1.707,0.853-4.267,0.853-5.973-1.707l-40.96-71.68
	c-13.653,11.947-24.747,24.747-33.28,40.107c-8.533,15.36-14.507,31.573-17.92,49.493H179.2c2.56,0,4.267,1.707,4.267,4.267
	C183.467,226.56,181.76,229.12,179.2,229.12z M265.387,179.627c-0.853,0-1.707,0-2.56-0.853c-1.707-0.853-2.56-3.413-1.707-5.973
	l40.96-71.68c-33.28-11.947-69.973-11.947-103.253,0l40.96,71.68c0.853,1.707,0.853,4.267-1.707,5.973
	c-1.707,0.853-4.267,0.853-5.973-1.707l-43.52-75.947c-0.853-0.853-0.853-2.56,0-3.413c0-0.853,1.707-1.707,2.56-2.56
	c38.4-14.507,80.213-14.507,118.613,0c0.853,0.853,1.707,1.707,2.56,2.56c0,0.853,0,2.56,0,3.413l-43.52,75.947
	C268.8,178.773,267.094,179.627,265.387,179.627z"/>
<g>
</g>
<g>
</g>
<g>
</g>
<g>
</g>
<g>
</g>
<g>
</g>
<g>
</g>
<g>
</g>
<g>
</g>
<g>
</g>
<g>
</g>
<g>
</g>
<g>
</g>
<g>
</g>
<g>
</g>
</svg>
