<?xml version="1.0" encoding="iso-8859-1"?>
<!-- Generator: Adobe Illustrator 19.0.0, SVG Export Plug-In . SVG Version: 6.00 Build 0)  -->
<svg version="1.1" id="Layer_1" xmlns="http://www.w3.org/2000/svg" xmlns:xlink="http://www.w3.org/1999/xlink" x="0px" y="0px"
	 viewBox="0 0 381.174 381.174" style="enable-background:new 0 0 381.174 381.174;" xml:space="preserve">
<g>
	<g>
		<path d="M117.071,75.587c-33.219-5.678-64.747,16.65-70.426,49.864c-5.678,33.219,16.65,64.748,49.864,70.426
			c33.219,5.678,64.748-16.65,70.426-49.864C172.613,112.794,150.285,81.265,117.071,75.587z M132.626,140.15
			c-2.437,14.269-15.985,23.859-30.254,21.422c-14.269-2.437-23.859-15.985-21.422-30.254c2.437-14.269,15.985-23.859,30.254-21.422
			C125.473,112.333,135.068,125.88,132.626,140.15z"/>
		<path d="M251.891,219.668c-33.7,0-61.015,27.32-61.015,61.015c0,33.695,27.32,61.015,61.015,61.015
			c33.695,0,61.015-27.32,61.015-61.015C312.906,246.989,285.586,219.668,251.891,219.668z M251.891,306.898
			c-14.474,0-26.214-11.735-26.214-26.214c0-14.474,11.735-26.214,26.214-26.214c14.474,0,26.214,11.735,26.214,26.214
			C278.1,295.158,266.365,306.898,251.891,306.898z"/>
		<path d="M340.969,280.683c0-7.352-0.988-14.459-2.668-21.299l11.182-2.744c-2.621-10.665-6.958-20.777-12.892-30.054l-9.677,6.19
			c-6.118-9.559-13.998-17.853-23.204-24.458l6.697-9.339c-8.95-6.42-18.816-11.29-29.317-14.474l-3.318,10.947
			c-8.192-2.483-16.876-3.845-25.876-3.845v-11.412c-11.034,0-21.883,1.782-32.251,5.289l3.686,10.88
			c-10.865,3.681-20.782,9.375-29.307,16.676l-7.46-8.714c-8.351,7.148-15.432,15.555-21.043,24.981l9.887,5.893
			c-5.704,9.564-9.636,20.27-11.418,31.718l-11.382-1.766c-0.794,5.105-1.198,10.332-1.198,15.534c0,5.74,0.492,11.5,1.454,17.116
			l11.341-1.946c1.961,11.407,6.083,22.047,11.94,31.529l-9.795,6.047c5.765,9.339,12.979,17.628,21.437,24.643l7.291-8.791
			c8.637,7.163,18.657,12.703,29.589,16.21l-3.497,10.895c9.902,3.18,20.239,4.787,30.725,4.787c0.532,0,1.065-0.005,1.597-0.01
			l-0.179-11.469c11.694-0.184,22.845-2.57,33.029-6.845l4.419,10.527c10.112-4.245,19.425-10.097,27.674-17.388l-7.619-8.617
			c8.453-7.475,15.462-16.512,20.593-26.685l10.271,5.176c4.951-9.82,8.228-20.326,9.743-31.222l-11.402-1.587
			C340.58,288.998,340.969,284.892,340.969,280.683z M251.891,350.008c-38.287,0-69.325-31.037-69.325-69.325
			c0-38.287,31.037-69.325,69.325-69.325s69.325,31.037,69.325,69.325S290.173,350.008,251.891,350.008z"/>
		<path d="M153.633,211.395c9.595-5.944,18.022-13.67,24.796-22.835l9.252,6.83c6.533-8.847,11.535-18.647,14.863-29.138
			l-10.972-3.487c1.239-3.896,2.319-7.88,3.026-12.027c1.239-7.25,1.459-14.423,0.957-21.443l11.484-0.824
			c-0.789-10.957-3.359-21.652-7.649-31.8l-10.583,4.475c-4.419-10.455-10.793-19.958-18.749-28.017l8.177-8.074
			c-7.741-7.839-16.645-14.3-26.46-19.21l-5.115,10.23c-7.659-3.83-15.985-6.635-24.858-8.151l1.92-11.243
			c-10.875-1.859-21.873-1.93-32.681-0.22l1.802,11.346c-11.331,1.797-22.062,5.74-31.698,11.5l-5.888-9.846
			c-9.436,5.642-17.828,12.733-24.955,21.074l8.755,7.47c-7.229,8.469-12.913,18.36-16.599,29.343l-10.921-3.661
			c-1.644,4.9-2.918,9.984-3.794,15.109c-0.968,5.658-1.454,11.418-1.449,17.116L17.8,135.9c0.01,11.571,2.278,22.753,6.456,33.091
			l-10.67,4.311c4.111,10.173,9.825,19.563,16.983,27.899l8.668-7.434c7.306,8.515,16.251,15.662,26.435,20.961l-5.294,10.163
			c9.226,4.803,19.144,8.131,29.481,9.897c0.527,0.092,1.05,0.174,1.577,0.256l1.756-11.336c11.556,1.787,22.953,1.316,33.71-1.183
			l2.581,11.126c10.685-2.478,20.849-6.677,30.203-12.477L153.633,211.395z M95.035,204.524
			c-37.99-6.492-63.529-42.557-57.032-80.548c6.492-37.99,42.557-63.524,80.548-57.032c37.99,6.492,63.529,42.557,57.032,80.548
			C169.085,185.482,133.025,211.016,95.035,204.524z"/>
		<path d="M365.663,90.634c0.43-3.277,0.722-6.595,0.701-9.994c-0.046-5.939-0.886-11.674-2.284-17.188l9.016-2.284
			c-2.181-8.602-5.745-16.742-10.593-24.202l-7.777,5.059c-4.997-7.685-11.412-14.336-18.888-19.615l5.356-7.583
			c-7.265-5.13-15.268-9.006-23.767-11.52l-2.616,8.863c-1.659-0.492-3.338-0.922-5.043-1.295c-5.115-1.116-10.424-1.7-15.882-1.659
			L293.819,0c-8.914,0.067-17.664,1.567-26.02,4.465l3.041,8.771c-8.755,3.036-16.732,7.695-23.572,13.645l-6.098-6.994
			c-6.702,5.827-12.37,12.657-16.85,20.301l8.023,4.7c-4.547,7.762-7.665,16.43-9.032,25.687l-9.206-1.362
			c-0.609,4.132-0.906,8.356-0.87,12.554c0.036,4.639,0.466,9.288,1.275,13.819l9.149-1.644c1.654,9.201,5.043,17.772,9.83,25.395
			l-7.875,4.946c4.716,7.506,10.588,14.162,17.464,19.779l5.837-7.142c7.02,5.734,15.145,10.148,23.997,12.918l-2.76,8.822
			c8.018,2.509,16.379,3.748,24.847,3.686c0.43-0.005,0.86-0.01,1.29-0.021l-0.215-9.262c9.441-0.22,18.442-2.212,26.639-5.729
			l3.635,8.479c8.146-3.492,15.631-8.269,22.246-14.213l-6.205-6.917c6.784-6.088,12.39-13.43,16.476-21.678l8.325,4.122
			c3.937-7.962,6.523-16.466,7.685-25.277L365.663,90.634z M313.971,89.272c-1.055,2.54-2.586,4.833-4.49,6.764
			c-3.804,3.86-9.078,6.267-14.925,6.313c-11.694,0.087-21.243-9.323-21.33-21.018s9.323-21.243,21.018-21.33
			c11.694-0.087,21.243,9.324,21.33,21.018C315.599,83.942,315.026,86.733,313.971,89.272z"/>
	</g>
</g>
<g>
</g>
<g>
</g>
<g>
</g>
<g>
</g>
<g>
</g>
<g>
</g>
<g>
</g>
<g>
</g>
<g>
</g>
<g>
</g>
<g>
</g>
<g>
</g>
<g>
</g>
<g>
</g>
<g>
</g>
</svg>
