<?xml version="1.0" encoding="iso-8859-1"?>
<!-- Generator: Adobe Illustrator 19.0.0, SVG Export Plug-In . SVG Version: 6.00 Build 0)  -->
<svg version="1.1" id="Layer_1" xmlns="http://www.w3.org/2000/svg" xmlns:xlink="http://www.w3.org/1999/xlink" x="0px" y="0px"
	 viewBox="0 0 512 512" style="enable-background:new 0 0 512 512;" xml:space="preserve">
<path style="fill:#AFB6BB;" d="M256,194.11c34.208,0,61.89,27.682,61.89,61.89s-27.682,61.89-61.89,61.89s-61.89-27.682-61.89-61.89
	S221.792,194.11,256,194.11z"/>
<path style="fill:#3A3F42;" d="M256,317.89v84.396c-80.795,0-146.286-65.491-146.286-146.286h84.396
	C194.11,290.208,221.792,317.89,256,317.89z"/>
<g>
	<path style="fill:#595E62;" d="M256,109.714v84.396c-34.208,0-61.89,27.682-61.89,61.89h-84.396
		C109.714,175.205,175.205,109.714,256,109.714z"/>
	<path style="fill:#595E62;" d="M317.89,256h84.396c0,80.795-65.491,146.286-146.286,146.286V317.89
		C290.208,317.89,317.89,290.208,317.89,256z"/>
</g>
<path style="fill:#3A3F42;" d="M402.286,256H317.89c0-34.208-27.682-61.89-61.89-61.89v-84.396
	C336.795,109.714,402.286,175.205,402.286,256z"/>
<path style="fill:#7E8488;" d="M503.56,222.242v67.516h-42.31c-5.289,32.295-17.892,62.003-36.234,87.546l29.932,29.82
	l-47.712,47.824l-29.932-29.932c-25.544,18.342-55.251,30.945-87.546,36.234v42.31h-67.516v-42.31
	c-32.295-5.289-62.003-17.892-87.546-36.234l-29.932,29.932l-47.712-47.824l29.932-29.82
	c-18.342-25.544-30.945-55.251-36.234-87.546H8.44v-67.516h42.31c5.289-32.295,17.892-62.003,36.234-87.546l-29.932-29.932
	l47.712-47.712l29.932,29.932c25.544-18.342,55.251-30.945,87.546-36.234V8.44h67.516v42.31
	c32.295,5.289,62.003,17.892,87.546,36.234l29.932-29.932l47.712,47.712l-29.932,29.932c18.342,25.544,30.945,55.251,36.234,87.546
	H503.56z M256,402.286c80.795,0,146.286-65.491,146.286-146.286S336.795,109.714,256,109.714S109.714,175.205,109.714,256
	S175.205,402.286,256,402.286z"/>
<path style="fill:#656A6E;" d="M109.714,256c0-80.795,65.491-146.286,146.286-146.286V8.44h-33.758v42.31
	c-32.295,5.289-62.003,17.892-87.546,36.234l-29.932-29.932l-47.712,47.712l29.932,29.932
	c-18.342,25.544-30.945,55.251-36.234,87.546H8.44v67.516h42.31c5.289,32.295,17.892,62.003,36.234,87.546l-29.932,29.82
	l47.712,47.824l29.932-29.932c25.544,18.342,55.251,30.945,87.546,36.234v42.31H256V402.286
	C175.205,402.286,109.714,336.795,109.714,256z"/>
<path d="M468.302,213.802c-5.543-28.117-16.394-54.336-32.334-78.123l30.915-30.916l-59.646-59.646l-30.916,30.915
	c-23.787-15.94-50.006-26.792-78.123-32.334V0h-84.396v43.698c-28.117,5.543-54.336,16.394-78.123,32.334l-30.916-30.915
	l-59.646,59.646l30.915,30.916c-15.94,23.787-26.792,50.006-32.334,78.123H0v84.396h43.698
	c5.542,28.113,16.391,54.327,32.327,78.113l-30.911,30.795l59.644,59.785l30.923-30.921c23.788,15.94,50.006,26.791,78.123,32.334
	V512h84.396v-43.698c28.117-5.543,54.336-16.394,78.123-32.334l30.923,30.921l59.644-59.785l-30.911-30.795
	c15.936-23.785,26.785-50,32.327-78.113H512v-84.396h-43.698V213.802z M495.121,281.319H454.08l-1.159,7.076
	c-5.009,30.583-16.704,58.841-34.761,83.987l-4.188,5.833l29.037,28.927l-35.779,35.864l-29.025-29.025l-5.822,4.18
	c-25.148,18.057-53.404,29.752-83.987,34.761l-7.076,1.159v41.04h-50.637V454.08l-7.076-1.159
	c-30.583-5.009-58.841-16.704-83.987-34.761l-5.822-4.18l-29.025,29.025l-35.779-35.864l29.037-28.927l-4.188-5.833
	c-18.057-25.148-29.752-53.404-34.761-83.987l-1.159-7.075H16.879v-50.637H57.92l1.159-7.076
	c5.009-30.583,16.704-58.841,34.761-83.987l4.18-5.822l-29.033-29.033l35.776-35.776l29.033,29.032l5.822-4.18
	c25.148-18.057,53.404-29.752,83.987-34.761l7.076-1.159v-41.04h50.637V57.92l7.076,1.159c30.583,5.009,58.841,16.704,83.987,34.761
	l5.822,4.18l29.033-29.032l35.776,35.775l-29.032,29.033l4.18,5.822c18.057,25.148,29.752,53.404,34.761,83.987l1.159,7.076h41.04
	V281.319z"/>
<path d="M256,101.275c-85.316,0-154.725,69.409-154.725,154.725S170.684,410.725,256,410.725S410.725,341.316,410.725,256
	S341.316,101.275,256,101.275z M393.581,247.56h-67.774c-3.852-32.043-29.322-57.514-61.366-61.366v-67.774
	C333.74,122.627,389.373,178.26,393.581,247.56z M256,309.451c-29.472,0-53.451-23.978-53.451-53.451
	c0-29.472,23.979-53.451,53.451-53.451c29.472,0,53.451,23.979,53.451,53.451C309.451,285.472,285.472,309.451,256,309.451z
	 M247.56,118.419v67.774c-32.043,3.852-57.514,29.322-61.366,61.366h-67.774C122.627,178.26,178.26,122.627,247.56,118.419z
	 M118.419,264.44h67.774c3.852,32.043,29.322,57.514,61.366,61.366v67.774C178.26,389.373,122.627,333.74,118.419,264.44z
	 M264.44,393.581v-67.774c32.043-3.852,57.514-29.322,61.366-61.366h67.774C389.373,333.74,333.74,389.373,264.44,393.581z"/>
<g>
	<path style="fill:#FFFFFF;" d="M352.275,235.26c-8.099-37.79-37.751-67.441-75.542-75.537l3.537-16.504
		c44.278,9.486,79.021,44.227,88.511,88.504L352.275,235.26z"/>
	<path style="fill:#FFFFFF;" d="M159.725,235.26l-16.504-3.538c9.489-44.278,44.232-79.018,88.511-88.504l3.537,16.504
		C197.476,167.82,167.823,197.47,159.725,235.26z"/>
	<path style="fill:#FFFFFF;" d="M231.731,368.782c-44.278-9.486-79.021-44.227-88.511-88.504l16.504-3.538
		c8.099,37.79,37.751,67.441,75.542,75.537L231.731,368.782z"/>
	<path style="fill:#FFFFFF;" d="M280.269,368.782l-3.537-16.504c37.791-8.096,67.443-37.746,75.542-75.537l16.504,3.538
		C359.291,324.555,324.548,359.295,280.269,368.782z"/>
	<path style="fill:#FFFFFF;" d="M256,292.571c-20.165,0-36.571-16.406-36.571-36.571c0-20.165,16.406-36.571,36.571-36.571
		c20.165,0,36.571,16.406,36.571,36.571C292.571,276.165,276.165,292.571,256,292.571z M256,236.308
		c-10.858,0-19.692,8.835-19.692,19.692c0,10.858,8.835,19.692,19.692,19.692c10.858,0,19.692-8.835,19.692-19.692
		C275.692,245.142,266.858,236.308,256,236.308z"/>
</g>
<g>
</g>
<g>
</g>
<g>
</g>
<g>
</g>
<g>
</g>
<g>
</g>
<g>
</g>
<g>
</g>
<g>
</g>
<g>
</g>
<g>
</g>
<g>
</g>
<g>
</g>
<g>
</g>
<g>
</g>
</svg>
