<?xml version="1.0" encoding="iso-8859-1"?>
<!-- Generator: Adobe Illustrator 19.0.0, SVG Export Plug-In . SVG Version: 6.00 Build 0)  -->
<svg version="1.1" id="Layer_1" xmlns="http://www.w3.org/2000/svg" xmlns:xlink="http://www.w3.org/1999/xlink" x="0px" y="0px"
	 viewBox="0 0 512 512" style="enable-background:new 0 0 512 512;" xml:space="preserve">
<path style="fill:#B4BBCC;" d="M490.361,238.924c-38.451-9.623-51.348-57.756-22.861-85.316
	c13.167-12.739,0.538-34.61-17.075-29.577l0,0c-38.11,10.891-73.347-24.344-62.456-62.456c5.033-17.615-16.838-30.243-29.576-17.076
	c-27.561,28.487-75.693,15.59-85.317-22.86l0,0c-4.448-17.772-29.703-17.772-34.152,0l0,0c-9.625,38.451-57.757,51.347-85.316,22.86
	l0,0c-12.738-13.167-34.61-0.538-29.576,17.076c10.891,38.112-24.346,73.347-62.456,62.456l0,0
	c-17.614-5.033-30.242,16.838-17.075,29.577c28.487,27.56,15.59,75.692-22.861,85.316c-17.772,4.448-17.772,29.705,0,34.152l0,0
	c38.451,9.623,51.348,57.756,22.861,85.316c-13.167,12.739-0.538,34.61,17.075,29.576l0,0c38.11-10.891,73.347,24.346,62.456,62.457
	c-5.033,17.615,16.838,30.242,29.576,17.076l0,0c27.56-28.487,75.692-15.59,85.316,22.861c4.448,17.772,29.703,17.772,34.152,0
	c9.625-38.451,57.756-51.348,85.317-22.861l0,0c12.738,13.167,34.609,0.538,29.576-17.076
	c-10.891-38.112,24.346-73.347,62.456-62.457l0,0c17.614,5.034,30.242-16.838,17.075-29.576
	c-28.487-27.56-15.59-75.692,22.861-85.316l0,0C508.133,268.629,508.133,243.372,490.361,238.924z M255.999,350.794
	c-52.353,0-94.794-42.441-94.794-94.794s42.441-94.794,94.794-94.794s94.794,42.44,94.794,94.794S308.353,350.794,255.999,350.794z"
	/>
<path style="opacity:0.1;enable-background:new    ;" d="M102.52,255.999c0-75.249,25.337-144.571,67.921-199.938
	c-6.057-2.538-11.791-6.351-16.832-11.562l0,0c-12.738-13.167-34.61-0.538-29.576,17.076c10.891,38.112-24.346,73.347-62.456,62.456
	l0,0c-17.614-5.033-30.242,16.838-17.075,29.577c28.487,27.56,15.59,75.692-22.861,85.316c-17.772,4.448-17.772,29.705,0,34.152l0,0
	c38.451,9.623,51.348,57.756,22.861,85.316c-13.167,12.739-0.538,34.61,17.075,29.576l0,0c38.11-10.891,73.347,24.346,62.456,62.457
	c-5.033,17.615,16.838,30.242,29.576,17.076l0,0c5.041-5.212,10.776-9.024,16.832-11.562
	C127.857,400.57,102.52,331.25,102.52,255.999z"/>
<path d="M256.001,512c-12.097,0-22.2-7.885-25.137-19.62c-3.777-15.088-15-26.498-30.024-30.523
	c-15.025-4.026-30.448,0.245-41.26,11.424c-8.412,8.695-21.104,10.472-31.58,4.423c-10.477-6.049-15.282-17.928-11.958-29.559
	c4.273-14.954,0.259-30.447-10.738-41.444c-10.997-10.998-26.492-15.015-41.446-10.739c-11.63,3.327-23.511-1.48-29.559-11.958
	c-6.049-10.477-4.272-23.168,4.423-31.58c11.178-10.814,15.448-26.239,11.423-41.261s-15.436-26.246-30.523-30.021
	C7.885,278.2,0,268.098,0,256.001c0-12.097,7.885-22.2,19.62-25.137c15.088-3.777,26.498-15,30.523-30.023
	c4.025-15.022-0.245-30.447-11.423-41.261c-8.695-8.411-10.473-21.103-4.424-31.579c6.049-10.477,17.93-15.28,29.561-11.958
	c14.956,4.274,30.448,0.258,41.446-10.738c10.997-10.997,15.011-26.49,10.738-41.444C112.718,52.229,117.523,40.348,128,34.3
	c10.475-6.05,23.168-4.272,31.579,4.423c10.816,11.178,26.239,15.448,41.262,11.423c15.022-4.025,26.246-15.436,30.023-30.522
	C233.801,7.886,243.903,0,256.001,0s22.199,7.885,25.135,19.62c3.777,15.087,15,26.497,30.023,30.522s30.448-0.245,41.264-11.423
	c8.41-8.694,21.1-10.473,31.578-4.424c10.478,6.049,15.283,17.928,11.959,29.562c-4.273,14.954-0.259,30.447,10.738,41.444
	s26.491,15.013,41.444,10.738c11.631-3.325,23.512,1.48,29.561,11.958c6.049,10.478,4.271,23.168-4.423,31.579
	c-11.178,10.814-15.448,26.239-11.423,41.261c4.025,15.023,15.437,26.246,30.523,30.023c11.736,2.937,19.621,13.039,19.62,25.137
	c0,12.097-7.885,22.198-19.621,25.135c-15.087,3.776-26.497,14.999-30.522,30.023c-4.025,15.022,0.245,30.447,11.423,41.261
	c8.695,8.412,10.472,21.104,4.423,31.58s-17.927,15.283-29.559,11.957c-14.954-4.273-30.449-0.258-41.446,10.739
	c-10.997,10.997-15.011,26.49-10.738,41.445c3.324,11.631-1.481,23.51-11.958,29.559c-10.478,6.047-23.168,4.27-31.579-4.424
	c-10.813-11.178-26.238-15.447-41.262-11.423c-15.023,4.025-26.246,15.436-30.023,30.523C278.199,504.115,268.097,512,256.001,512z
	 M189.584,443.733c5.151,0,10.37,0.68,15.559,2.071c20.938,5.609,36.58,21.513,41.843,42.541c1.298,5.188,5.509,7.036,9.015,7.036
	c3.507,0,7.716-1.848,9.015-7.036c5.263-21.027,20.905-36.93,41.843-42.541c20.94-5.611,42.436,0.342,57.508,15.921
	c3.719,3.843,8.288,3.34,11.325,1.587c3.037-1.754,5.758-5.459,4.289-10.601c-5.955-20.842-0.361-42.436,14.966-57.763
	c15.327-15.328,36.922-20.922,57.763-14.967c5.143,1.468,8.849-1.251,10.602-4.288c1.754-3.037,2.258-7.608-1.587-11.327
	c-15.579-15.072-21.53-36.569-15.92-57.507c5.611-20.936,21.514-36.579,42.541-41.841c5.188-1.298,7.036-5.509,7.036-9.015
	c0-3.507-1.848-7.717-7.036-9.015l0,0c-21.027-5.263-36.93-20.905-42.54-41.843s0.341-42.436,15.92-57.507
	c3.844-3.719,3.34-8.29,1.587-11.326c-1.753-3.037-5.455-5.758-10.601-4.289c-20.842,5.955-42.437,0.361-57.764-14.967
	c-15.327-15.327-20.922-36.921-14.966-57.763c1.47-5.143-1.252-8.848-4.289-10.602c-3.036-1.754-7.606-2.258-11.324,1.587
	c-15.073,15.579-36.572,21.529-57.509,15.92c-20.936-5.611-36.579-21.513-41.842-42.54c-1.298-5.19-5.509-7.038-9.015-7.038
	c-3.507,0-7.716,1.848-9.015,7.036c-5.263,21.027-20.905,36.93-41.843,42.541c-20.936,5.611-42.436-0.341-57.507-15.92
	c-3.718-3.845-8.288-3.34-11.326-1.587c-3.037,1.754-5.758,5.459-4.289,10.602c5.955,20.842,0.361,42.436-14.966,57.763
	c-15.327,15.328-36.921,20.924-57.763,14.967c-5.145-1.472-8.849,1.252-10.602,4.289c-1.754,3.037-2.258,7.607,1.587,11.326
	c15.579,15.072,21.53,36.569,15.92,57.507c-5.609,20.938-21.513,36.58-42.54,41.843c-5.188,1.298-7.038,5.509-7.038,9.015
	c0,3.507,1.848,7.716,7.036,9.014c21.028,5.264,36.932,20.905,42.541,41.844c5.611,20.936-0.341,42.435-15.92,57.506
	c-3.845,3.719-3.34,8.289-1.587,11.327c1.754,3.037,5.459,5.759,10.601,4.288c20.843-5.956,42.438-0.36,57.765,14.968
	c15.326,15.327,20.921,36.921,14.966,57.762c-1.47,5.142,1.251,8.848,4.289,10.601c3.036,1.754,7.608,2.259,11.326-1.587
	C158.972,450.005,173.949,443.733,189.584,443.733z M256.001,359.103c-21.38,0-41.908-6.511-59.366-18.829
	c-3.749-2.646-4.644-7.83-1.999-11.58c2.646-3.749,7.831-4.644,11.58-1.999c14.639,10.329,31.854,15.789,49.785,15.789
	c47.687,0,86.485-38.797,86.485-86.485c0-20.421-7.269-40.252-20.469-55.839c-2.966-3.502-2.53-8.746,0.972-11.711
	c3.504-2.966,8.747-2.529,11.711,0.972c15.738,18.585,24.404,42.23,24.404,66.58C359.103,312.85,312.85,359.103,256.001,359.103z
	 M178.03,318.192c-2.635,0-5.226-1.25-6.839-3.58c-11.968-17.287-18.293-37.554-18.293-58.611
	c0-56.851,46.253-103.104,103.104-103.104c17.77,0,35.318,4.621,50.747,13.365c3.993,2.262,5.396,7.333,3.132,11.326
	c-2.262,3.993-7.334,5.394-11.326,3.132c-12.935-7.33-27.651-11.204-42.554-11.204c-47.687,0-86.485,38.797-86.485,86.485
	c0,17.66,5.304,34.657,15.338,49.152c2.613,3.774,1.671,8.95-2.102,11.562C181.309,317.712,179.661,318.192,178.03,318.192z"/>
<g>
</g>
<g>
</g>
<g>
</g>
<g>
</g>
<g>
</g>
<g>
</g>
<g>
</g>
<g>
</g>
<g>
</g>
<g>
</g>
<g>
</g>
<g>
</g>
<g>
</g>
<g>
</g>
<g>
</g>
</svg>
