<?xml version="1.0" encoding="iso-8859-1"?>
<!-- Generator: Adobe Illustrator 19.0.0, SVG Export Plug-In . SVG Version: 6.00 Build 0)  -->
<svg version="1.1" id="Layer_1" xmlns="http://www.w3.org/2000/svg" xmlns:xlink="http://www.w3.org/1999/xlink" x="0px" y="0px"
	 viewBox="0 0 502.613 502.613" style="enable-background:new 0 0 502.613 502.613;" xml:space="preserve">
<g transform="translate(1 1)">
	<path style="fill:#AAB1BA;" d="M360.813,249.88c0-61.44-49.493-110.933-110.933-110.933S138.947,188.44,138.947,249.88
		S188.44,360.813,249.88,360.813S360.813,311.32,360.813,249.88 M497.347,215.747v68.267c0,4.267-2.56,6.827-8.533,8.533
		l-50.347,11.093c-4.267,14.507-10.24,28.16-17.067,41.813l27.307,43.52c2.56,5.12,3.413,8.533,0,11.947l-48.64,48.64
		c-3.413,3.413-6.827,3.413-11.947,0l-43.52-27.307c-12.8,7.68-27.307,12.8-41.813,17.067l-11.093,50.347
		c-1.707,5.12-3.413,8.533-8.533,8.533h-68.267c-5.12,0-6.827-2.56-8.533-8.533l-11.093-50.347
		c-14.507-4.267-28.16-10.24-41.813-17.067l-43.52,27.307c-5.12,2.56-8.533,3.413-11.947,0L50.2,400.92
		c-3.413-3.413-3.413-6.827,0-11.947l27.307-43.52c-7.68-12.8-12.8-27.307-17.067-41.813l-50.347-11.093
		c-5.12-1.707-8.533-4.267-8.533-8.533v-68.267c0-4.267,2.56-6.827,8.533-8.533L60.44,196.12
		c4.267-14.507,10.24-28.16,17.067-41.813L50.2,110.787c-2.56-5.12-3.413-8.533,0-11.947l47.787-47.787
		c3.413-3.413,6.827-3.413,11.947,0l43.52,27.307c12.8-7.68,27.307-12.8,41.813-17.067l11.093-50.347
		c1.707-5.12,3.413-8.533,8.533-8.533h68.267c5.12,0,6.827,2.56,8.533,8.533l11.093,50.347c14.507,4.267,28.16,10.24,41.813,17.067
		l43.52-27.307c5.12-2.56,8.533-3.413,11.947,0l48.64,47.787c3.413,3.413,3.413,6.827,0,11.947l-27.307,43.52
		c6.827,12.8,12.8,27.307,17.067,41.813l50.347,11.093C493.933,208.92,497.347,211.48,497.347,215.747"/>
	<path style="fill:#AAB1BA;" d="M249.88,224.28c14.507,0,25.6,11.093,25.6,25.6c0,14.507-11.093,25.6-25.6,25.6
		s-25.6-11.093-25.6-25.6C224.28,235.373,235.373,224.28,249.88,224.28"/>
</g>
<path style="fill:#51565F;" d="M285.013,502.613h-68.267c-8.533,0-11.093-5.973-12.8-11.947l-10.24-47.787
	c-12.8-4.267-25.6-9.387-37.547-15.36l-40.96,26.453c-4.267,1.707-11.093,5.973-17.067-0.853l-48.64-48.64
	c-5.973-5.973-3.413-11.947-0.853-17.067L75.093,345.6c-6.827-11.947-11.947-24.747-15.36-37.547l-47.787-10.24
	C7.68,296.107,0,293.547,0,285.013v-68.267c0-8.533,5.973-11.093,11.947-12.8l47.787-10.24c4.267-12.8,9.387-25.6,15.36-37.547
	L48.64,115.2c-1.707-4.267-5.973-11.093,0.853-17.067l48.64-48.64c6.827-6.827,14.507-2.56,17.067-0.853l41.813,26.453
	c11.947-6.827,24.747-11.947,37.547-15.36l10.24-47.787C206.507,7.68,209.067,0,217.6,0h68.267c8.533,0,11.093,5.973,12.8,11.947
	l10.24,47.787c12.8,4.267,25.6,9.387,37.547,15.36l40.96-26.453c4.267-1.707,11.093-5.973,17.067,0.853l48.64,48.64
	c5.973,5.973,3.413,11.947,0.853,17.067l-26.453,41.813c6.827,11.947,11.947,24.747,15.36,37.547l47.787,10.24
	c4.267,1.707,11.947,3.413,11.947,12.8v68.267c0,8.533-5.973,11.093-11.947,12.8l-47.787,10.24c-4.267,12.8-9.387,25.6-15.36,37.547
	l26.453,40.96c1.707,4.267,5.973,11.093-0.853,17.067l-48.64,48.64c-5.973,5.973-11.947,3.413-17.067,0.853L345.6,427.52
	c-11.947,6.827-24.747,11.947-37.547,15.36l-10.24,47.787C296.107,494.933,293.547,502.613,285.013,502.613z M155.307,418.133
	c0.853,0,1.707,0,1.707,0.853c12.8,6.827,26.453,12.8,40.96,17.067c1.707,0,2.56,1.707,3.413,3.413l11.093,50.347
	c1.707,5.12,2.56,5.12,4.267,5.12h68.267c1.707,0,2.56,0,4.267-5.973l11.093-49.493c0-1.707,1.707-2.56,3.413-3.413
	c14.507-4.267,28.16-9.387,40.96-17.067c1.707-0.853,3.413-0.853,4.267,0l43.52,27.307c4.267,2.56,5.973,1.707,6.827,0.853
	l48.64-48.64c0.853-0.853,1.707-1.707-0.853-6.827l-27.307-42.667c-0.853-1.707-0.853-3.413,0-4.267
	c6.827-12.8,12.8-26.453,17.067-40.96c0-1.707,1.707-2.56,3.413-3.413l50.347-11.093c5.12-1.707,5.12-2.56,5.12-4.267v-68.267
	c0-1.707,0-2.56-5.973-4.267l-49.493-11.093c-1.707,0-2.56-1.707-3.413-3.413c-4.267-14.507-9.387-28.16-17.067-40.96
	c-0.853-1.707-0.853-3.413,0-4.267l27.307-43.52c2.56-4.267,1.707-5.973,0.853-6.827l-48.64-48.64
	c-0.853-0.853-1.707-1.707-6.827,0.853l-42.667,27.307c-1.707,0.853-3.413,0.853-4.267,0c-12.8-6.827-26.453-12.8-40.96-17.067
	c-1.707-0.853-2.56-1.707-3.413-3.413l-11.093-50.347c-1.707-5.12-2.56-5.12-4.267-5.12H217.6c-1.707,0-2.56,0-4.267,5.973
	L202.24,61.441c0,1.707-1.707,2.56-3.413,3.413c-14.507,4.267-28.16,9.387-40.96,17.067c-1.707,0.853-3.413,0.853-4.267,0
	l-43.52-27.307c-4.267-2.56-5.973-1.707-6.827-0.853l-48.64,48.64c-0.853,0.853-1.707,1.707,0.853,6.827l27.307,42.667
	c0.853,1.707,0.853,3.413,0,4.267c-6.827,12.8-12.8,26.453-17.067,40.96c-0.853,1.707-1.707,2.56-3.413,3.413l-50.347,11.093
	c-5.12,1.707-5.12,2.56-5.12,4.267v68.267c0,1.707,0,2.56,5.973,4.267l49.493,11.093c1.707,0,2.56,1.707,3.413,3.413
	c4.267,14.507,9.387,28.16,17.067,40.96c0.853,1.707,0.853,3.413,0,4.267l-27.307,43.52c-2.56,4.267-1.707,5.973-0.853,6.827
	l48.64,48.64c0.853,0.853,1.707,1.707,6.827-0.853l42.667-27.307C153.6,418.133,154.453,418.133,155.307,418.133z M250.88,366.08
	c-63.147,0-115.2-52.053-115.2-115.2s52.053-115.2,115.2-115.2s115.2,52.053,115.2,115.2c0,50.347-32.427,93.867-79.36,109.227
	c-2.56,0.853-4.267-0.853-5.12-2.56s0.853-4.267,2.56-5.12c44.373-14.507,74.24-55.467,74.24-101.547
	c0-58.88-47.787-106.667-106.667-106.667S145.066,192,145.066,250.88s47.787,106.667,106.667,106.667
	c2.56,0,4.267,1.707,4.267,4.267C256,364.373,253.44,366.08,250.88,366.08z M250.88,280.747c-16.213,0-29.867-13.653-29.867-29.867
	s13.653-29.867,29.867-29.867c16.213,0,29.867,13.653,29.867,29.867S267.093,280.747,250.88,280.747z M250.88,229.547
	c-11.947,0-21.333,9.387-21.333,21.333s9.387,21.333,21.333,21.333s21.333-9.387,21.333-21.333S262.827,229.547,250.88,229.547z"/>
<g>
</g>
<g>
</g>
<g>
</g>
<g>
</g>
<g>
</g>
<g>
</g>
<g>
</g>
<g>
</g>
<g>
</g>
<g>
</g>
<g>
</g>
<g>
</g>
<g>
</g>
<g>
</g>
<g>
</g>
</svg>
