<?xml version="1.0" standalone="no"?>
<!DOCTYPE svg PUBLIC "-//W3C//DTD SVG 20010904//EN"
        "http://www.w3.org/TR/2001/REC-SVG-20010904/DTD/svg10.dtd">
<svg version="1.0" xmlns="http://www.w3.org/2000/svg"
     width="512.000000pt" height="512.000000pt" viewBox="0 0 512.000000 512.000000"
     preserveAspectRatio="xMidYMid meet">
    <metadata>
        Created by potrace 1.11, written by Peter Selinger 2001-2013
    </metadata>
    <g transform="translate(0.000000,512.000000) scale(0.100000,-0.100000)"
       fill="#000000" stroke="none">
        <path d="M220 3225 l0 -1625 339 -2 338 -3 -168 -505 c-92 -278 -170 -513
-173 -523 -4 -17 4 -18 147 -12 299 12 364 14 532 20 94 3 220 8 280 10 110 4
317 12 555 20 69 3 184 7 255 10 72 3 193 7 270 10 136 5 275 10 555 20 74 3
191 7 260 10 69 2 195 7 280 10 85 4 200 8 255 10 382 13 507 18 560 20 33 2
75 4 93 4 l34 1 -44 52 c-23 29 -53 64 -65 78 -11 14 -60 72 -107 130 -84 104
-85 105 -63 120 137 94 269 212 352 315 22 28 43 52 46 55 19 16 117 177 154
254 211 434 219 915 23 1366 -11 25 -26 56 -33 70 -39 73 -51 95 -58 104 -4 6
-27 39 -50 72 -23 34 -55 78 -72 99 -32 39 -195 207 -195 200 0 -2 -11 6 -25
19 -14 13 -44 36 -67 52 -24 16 -45 31 -48 34 -12 13 -131 79 -203 113 -62 29
-188 72 -304 103 -10 3 -13 103 -13 459 l0 455 -1820 0 -1820 0 0 -1625z
m3550 1137 l0 -399 -167 3 c-230 3 -393 -25 -578 -99 -117 -47 -206 -94 -288
-151 -32 -23 -66 -45 -74 -51 -31 -20 -109 -91 -183 -168 l-76 -78 -40 48
c-21 26 -44 55 -51 63 -11 14 -106 129 -162 197 -14 17 -107 130 -206 251 -99
121 -181 219 -182 217 -3 -1 -51 -133 -52 -138 0 -3 25 73 -393 -1192 l-384
-1160 -317 -3 -317 -2 0 1530 0 1530 1735 0 1735 0 0 -398z m7 -475 c5 -3 23
-8 39 -11 182 -33 343 -98 509 -204 124 -79 239 -183 342 -309 88 -107 198
-300 233 -408 7 -22 15 -44 19 -50 3 -5 6 -14 8 -20 1 -5 13 -55 27 -110 37
-145 44 -220 41 -400 -5 -270 -70 -506 -204 -740 -108 -187 -292 -378 -476
-495 l-30 -19 -70 87 c-39 48 -80 98 -92 112 -24 29 -381 465 -433 530 -19 25
-49 60 -66 80 -16 19 -68 82 -115 140 -46 58 -86 107 -89 110 -3 3 -24 28 -45
55 -22 28 -42 52 -45 55 -3 3 -86 104 -185 225 -99 121 -184 225 -190 231 -10
12 -297 362 -422 516 -40 49 -73 93 -73 98 0 5 49 57 108 117 114 114 226 198
339 254 37 19 70 36 73 39 12 12 217 85 267 94 34 7 95 17 148 25 57 9 367 7
382 -2z"/>
    </g>
</svg>
